PathFileType	4	(X/Y/Z)	48_2_21_p1_0-442_filt_butterworth.trc
DataRate	CameraRate	NumFrames	NumMarkers	Units	OrigDataRate	OrigDataStartFrame	OrigNumFrames
57.0	57.0	7	27	m	57.0	221	442
Frame#	Time	RHip			RKnee			RAnkle			RBigToe			RSmallToe			RHeel			LHip			LKnee			LAnkle			LBigToe			LSmallToe			LHeel			Neck			Head			Nose			RShoulder			RElbow			RWrist			RThumb			RIndex			RPinky			LShoulder			LElbow			LWrist			LThumb			LIndex			LPinky			
		X1	Y1	Z1	X2	Y2	Z2	X3	Y3	Z3	X4	Y4	Z4	X5	Y5	Z5	X6	Y6	Z6	X7	Y7	Z7	X8	Y8	Z8	X9	Y9	Z9	X10	Y10	Z10	X11	Y11	Z11	X12	Y12	Z12	X13	Y13	Z13	X14	Y14	Z14	X15	Y15	Z15	X16	Y16	Z16	X17	Y17	Z17	X18	Y18	Z18	X19	Y19	Z19	X20	Y20	Z20	X21	Y21	Z21	X22	Y22	Z22	X23	Y23	Z23	X24	Y24	Z24	X25	Y25	Z25	X26	Y26	Z26	X27	Y27	Z27	
221	3.877192982456141	0.18017086515631284	0.90859289697368	0.48312010472628614	0.1697628963102517	0.46693643133248514	0.5793784063088407	0.1559578047349853	-0.00279508719166182	0.6966675739894518	0.10931939197239735	-0.015284792586574683	0.49000689198578495	0.17952774269440203	-0.009358151492233555	0.48537974875557666	0.13547363249407615	-0.06707038547106102	0.7704825560783298	-0.044168383655249964	0.9173944120489205	0.5305294651895436	-0.0415991154445955	0.44711289722457215	0.6569728470926595	-0.045864248738665556	0.046612279066606775	0.6923968384488522	-0.057723657361033895	0.022951783373524888	0.4825137491391304	-0.10998288169306339	-0.003923418498290969	0.5589588603333876	-0.023058003385814953	-0.04131752070952577	0.7489859428487945	0.12227339267933394	1.5658406690392233	0.5954488160745934	0.1365221743810122	1.8202960266644774	0.5553017735536492	0.1184177315735151	1.6764562629116335	0.5067380181940778	0.2953428955976785	1.4666675429915466	0.5929704141360991	0.2186721892511989	1.2665245852857008	0.3843473661927992	0.1189467815592126	1.3473905404727553	0.18112214404471805	0.10855026103864951	1.4145013313680266	0.09254161827484295	0.09282896507028265	1.3993632293484228	0.022391814597694	0.07630523125754066	1.3882942623835077	-0.04346284864760343	-0.03532275010398148	1.492820384940059	0.6507472263273366	-0.061193255199610885	1.3153396315359842	0.439746654242736	-0.033315295057843274	1.365430906708861	0.18863610839473238	-0.014601242470459345	1.4099093600255013	0.14708295388047676	-0.036651514169807525	1.412751505445415	0.04511799281248233	-0.0447933797466296	1.3656619515547455	0.012234901470710033	
222	3.8947368421052633	0.1795804882862764	0.9075798609688662	0.48288460347498935	0.16973744759271214	0.4674417537205736	0.5782353275502021	0.1558960943507959	-0.002579099187605273	0.6965160325069809	0.10929480032753518	-0.015323689263559828	0.48998927130298614	0.17951932940776577	-0.009403505970921287	0.4853498817252925	0.13547699561732324	-0.06728514002034948	0.7703804925603651	-0.04420038692223408	0.9167793797481044	0.5301134642446446	-0.04187738498721652	0.4469559585322319	0.6569029472796207	-0.04589473938873266	0.04674096487818865	0.6920090237637067	-0.05772289336327763	0.022971148712534188	0.48249344027573826	-0.11000349779878835	-0.0038580867799991037	0.5589365802475282	-0.023058011288985047	-0.04145598485649109	0.7489477100393048	0.12225164160111754	1.5658733207480595	0.5953850852467037	0.13651331071481265	1.8197886333235018	0.5552205263415554	0.11842605118338706	1.6764643302532602	0.5066931802548881	0.2953509982463889	1.4667034367188063	0.592911318002811	0.2168363624698105	1.2640002556461372	0.3874135158797608	0.11223111809621192	1.3451853057976089	0.18580855155484322	0.10784577347901697	1.413507499768112	0.09527730054775974	0.08721321623791697	1.3979649596704813	0.027806502017264298	0.07060923646014093	1.3899660231925692	-0.06500462365800955	-0.035552508892782414	1.4929223695074818	0.6508674342081296	-0.06142271687059349	1.3146770031144304	0.44137926422098883	-0.025740258770400544	1.36369515022893	0.18896092962107908	0.0013170066584118028	1.4035446727174978	0.16186943342093174	-0.008799575108173164	1.4059160610282617	0.05071521061661739	-0.03776153472022685	1.3631683031817643	0.01651051723447272	
223	3.912280701754386	0.17901067936186738	0.9065982956272322	0.4825277945635298	0.16968968854530994	0.46784477184362644	0.5769700685523445	0.15581773411375266	-0.00221677659656834	0.6963538859833964	0.10934865070451234	-0.015381121262005689	0.49010678003344654	0.17955298764566863	-0.009412743919630637	0.4853887203226883	0.13548450764379297	-0.06739660362384355	0.7703088652178992	-0.04403699576108155	0.9159954270108212	0.5302791607044778	-0.04210135423243529	0.4467371730793859	0.6568509772897655	-0.045931743146121154	0.04701126643942258	0.6914069440363602	-0.05772496328550446	0.022986414120282517	0.4824583685859015	-0.10997577597541816	-0.0035514345977458936	0.5589161928518145	-0.02318092939657615	-0.04150298462723986	0.7488299553674005	0.12222400939157514	1.565927930114035	0.5953351382760399	0.13649877591437404	1.81871026657042	0.5551732719199285	0.11843936525523507	1.6764720486880391	0.5066380863721756	0.29517538946626376	1.4665476791294823	0.5947822052874512	0.21459156944213242	1.2619969748402877	0.3901986643731532	0.10724562550592087	1.3438626277056096	0.18733595858495727	0.10694217242785217	1.4135443172596298	0.09770973858893006	0.08138302319042945	1.397515238441975	0.030618737305090196	0.06434950034602126	1.390559994630842	-0.08540070731583153	-0.03568255170207558	1.493152742473063	0.6505028404622024	-0.06205073264830818	1.3143320743219997	0.4421244604009528	-0.01732501020008815	1.3619455767677902	0.19032424168709697	0.01791198694031604	1.3970972484814614	0.17692728077777573	0.01897423853878394	1.3996100553409083	0.05742293313761539	-0.031170273824535168	1.361954162149121	0.020000287712449563	
224	3.929824561403509	0.17844579657178392	0.905681278470668	0.48198219863841213	0.1696001711442223	0.4680906152364394	0.5755213432433463	0.15574466592456188	-0.0017977084516226233	0.6962270289238702	0.1095456525946243	-0.01546265628633409	0.4904217756647861	0.179632536768143	-0.009392405361991332	0.4855107946357529	0.13549962932331033	-0.06739522797909092	0.7702899773406578	-0.04376204716650554	0.9150957680880722	0.5309233494462093	-0.04224566685776536	0.4464597243587617	0.6568205016201102	-0.045969315132828883	0.04741962294852351	0.6905932371381318	-0.057728119672715184	0.02299419822271375	0.48241260265151786	-0.10987317999630808	-0.003105496716555342	0.5588823565592845	-0.02344949651715912	-0.041379251546846914	0.7486176447090852	0.12219684720777212	1.5660303168048364	0.5952990377901459	0.13646509581421112	1.8173386397632953	0.5552575175499664	0.11844983019181754	1.6764803689088656	0.5066217332575063	0.29487644358197995	1.4662829099018098	0.5978782058760888	0.21187351676120575	1.26077088860182	0.39243208323634793	0.103920499808965	1.3432995690021756	0.18662545363577865	0.10478376499122485	1.4142619317749268	0.10270123761895401	0.07509152548498584	1.3981703486198696	0.030136763076698575	0.05673429231583252	1.3893491652343568	-0.09742647485224087	-0.03568461693834774	1.4933303237258453	0.6501325072323476	-0.06278474748385585	1.3142228593023737	0.4416676281655345	-0.009666828020469007	1.3605684955057138	0.19182490668717397	0.03295256851578179	1.3915308748363744	0.19043667319912333	0.0412998906026959	1.3949555444024648	0.06458453702903881	-0.025608053703791805	1.3616110744588414	0.022662100372893762	
225	3.947368421052632	0.17787876658967464	0.9049162826914259	0.4812780838418295	0.16951450717097474	0.4681610647898046	0.5739033584519239	0.15570586000441616	-0.0013974565950913773	0.6962019718776089	0.10981808499900683	-0.015505222215080178	0.490868589381011	0.17973336634157433	-0.009366415433749824	0.4856892128937247	0.13552427648959262	-0.06726234483842558	0.7703405868175555	-0.04349567368357666	0.9141553186263036	0.5315835191874947	-0.04232061391703156	0.44614937571460644	0.6568018060190076	-0.04600295717099563	0.047973619289435755	0.6895647238357738	-0.057730199989118575	0.022991504685843378	0.4823639983301696	-0.10970483552952473	-0.002737142821519975	0.5588043697178949	-0.023898943314958104	-0.04108191672517698	0.748299580760055	0.1221758194276167	1.5661275735753044	0.5952614080489074	0.13640741196006143	1.8159287350732927	0.5555153910464358	0.11843875791117127	1.6764895852098585	0.506745191698221	0.2945403298225652	1.4659886528311896	0.6012683894204034	0.2090819132598259	1.2603109838203086	0.39396175106713355	0.10175740187496723	1.3431269331950404	0.18522351717956426	0.1010854880279222	1.4152990796919371	0.11153599226785525	0.06853871848271716	1.3996872085928076	0.027000704210501242	0.047711203048513326	1.3862552925994327	-0.09626066293657178	-0.03566893086516071	1.4932927144137182	0.6500669595589181	-0.06335911353337675	1.3142824075355017	0.4397172149982309	-0.00429256988400622	1.3598290109716773	0.1926208121133012	0.04442323290946712	1.3875222067149604	0.2007530323802741	0.054975494646672285	1.3923557988480222	0.07126912057976989	-0.021342485525403167	1.3616952239268743	0.024171122740580864	
226	3.9649122807017534	0.1773250679135361	0.904344386285417	0.48048165971752343	0.1694976466597603	0.4680616110721649	0.5722122013786864	0.15572645876775346	-0.0010755979154636955	0.6963340724771087	0.10998212692473841	-0.015483713382596829	0.49127765784452804	0.1798128277795675	-0.009356541250452266	0.48587183418317903	0.13555601265445996	-0.06699529618637352	0.7704553823478568	-0.04330261426883752	0.9132360246024005	0.5317905496075396	-0.04238389134095016	0.4458649123434467	0.6567700525393292	-0.046041532885099004	0.048700716427140925	0.6883107633454597	-0.05772941219467356	0.022977879867085958	0.4823199990689246	-0.10949774871493684	-0.00251331598971731	0.5586624963080836	-0.02454781111261956	-0.04066619278726789	0.7478864028195187	0.12216423476997809	1.5660958501249371	0.5952061057399431	0.136366477398104	1.814663069630457	0.5557289898535869	0.11839746857253147	1.6764974203361824	0.5070477017382018	0.2942331609428764	1.4657182088955585	0.6042795373379295	0.2066553830878467	1.2603547873290768	0.39480221368401824	0.10026761656595722	1.3430013762834692	0.18455468961989585	0.09630729658250958	1.4162880370883146	0.1237685690027923	0.06223949620687434	1.4015359857373253	0.023221148675308334	0.03867570882570125	1.3818596265788403	-0.08271163572172724	-0.03573349910400034	1.492971013841577	0.6503106197347294	-0.06364134229257636	1.31435464658706	0.4364057546620595	-0.002039361967509679	1.359679510025819	0.19255545312590489	0.05120625881561881	1.385255415999285	0.2072637334040473	0.058037240050871075	1.391901935144901	0.0765159980487282	-0.018384243763962596	1.3619705290494626	0.024330431071155026	
227	3.982456140350877	0.1768071481756116	0.9039357445562338	0.479639455483908	0.16955260926053572	0.46783738600188324	0.5705835079017191	0.15580378665349082	-0.0008452773779940234	0.6965945960732951	0.10994251341158856	-0.01552275113101009	0.4914911071246588	0.17983871922968875	-0.009371809826704575	0.48601422338992	0.13558899111664735	-0.06663167708714582	0.7706024147838084	-0.04317044031746043	0.912359782982415	0.5315032279666317	-0.04249548596150295	0.44566597900758037	0.6566988763557479	-0.04610467384751718	0.049622055284153394	0.6868449796511076	-0.05772538789373766	0.02295771457787367	0.4822858640400113	-0.10927853447694652	-0.002325061904617981	0.5584763496528209	-0.0253336917061423	-0.04019101598513273	0.7474337898484928	0.12216213392726419	1.5658418445960516	0.5951344397407788	0.13642129258092944	1.813705444079521	0.5554562464911406	0.11836588550865537	1.6765032387554233	0.5072993281191436	0.293992149056363	1.465515730305867	0.6065357209886052	0.20473543361503224	1.2605713446432918	0.39522702315423763	0.09925806426620976	1.3428032848153817	0.18529655902965014	0.09119595686006918	1.4169698301702087	0.13787115763537497	0.0566563594519309	1.4033078126225167	0.020632869072093357	0.03169209192328827	1.377091604813016	-0.061811094485344414	-0.035830085671090806	1.4924375867212425	0.6505389769846954	-0.06363819528702815	1.3141826703709374	0.4324090463033319	-0.0029985323470282633	1.3598227284999649	0.19197684722097513	0.0530557265501186	1.3845945469934633	0.21040173080508856	0.050198127766237985	1.393488646186456	0.07978827718421681	-0.01664424777232964	1.3623665112004497	0.023648157162072345	
